<?xml version="1.0" encoding="UTF-8" standalone="no"?>
<!DOCTYPE svg PUBLIC "-//W3C//DTD SVG 1.1//EN" "http://www.w3.org/Graphics/SVG/1.1/DTD/svg11.dtd">
<svg width="50px" height="50px" viewBox="0 0 1500 1500" version="1.1" xmlns="http://www.w3.org/2000/svg" 
xmlns:xlink="http://www.w3.org/1999/xlink" xml:space="preserve"  
style="fill-rule:evenodd;clip-rule:evenodd;stroke-linejoin:round;stroke-miterlimit:1.41421;">
<g id="Layer-6" >
<path d="M0,749.98c0,-414.204 335.78,-749.98 749.976,-749.98c414.204,0 749.984,335.776 749.984,749.98c0,414.2 -335.78,749.976 -749.984,749.976c-414.196,0 -749.976,-335.776 -749.976,-749.976" 
style="fill:#e8e8e8;fill-rule:nonzero;"/>
<path d="M200.745,753.178c21.941,4.314 104.879,77.693 110.644,82.175c23.786,18.497 158.762,127.095 207.677,157.08c122.894,75.317 238.143,134.159 444.831,163.361c91.257,12.89 196.569,3.636 251.574,-12.716c75.17,-22.355 60.898,33.826 23.785,56.82c-74.107,45.918 -193.415,58.138 -336.971,37.299c-163.858,-23.785 -266.519,-95.507 -330.128,-133.672c-63.609,-38.166 -374.787,-307.479 -385.94,-327.309c-8.869,-15.767 0.32,-25.823 14.528,-23.038" 
style="fill:#8e0000;fill-rule:nonzero;"/>
<path d="M1245.83,759.096c0,94.986 -31.967,171.981 -71.406,171.981c-39.435,0 -71.407,-76.995 -71.407,-171.981c0,-94.986 31.972,-171.986 71.407,-171.986c39.439,0 71.406,77 71.406,171.986" 
style="fill:#005cff;fill-rule:nonzero;"/>
<path d="M1371.86,168.133c2.211,1.395 2.926,4.287 1.618,6.551c-59.411,102.717 -130.899,200.469 -218.009,293.018c-44.718,46.592 -92.044,91.995 -142.223,135.926c-50.769,43.493 -104.244,85.451 -161.212,125.25c-57.361,39.41 -116.002,79.204 -181.136,114.28c-64.987,34.983 -138.238,63.117 -217.344,78.274c-78.515,15.394 -163.868,17.563 -240.563,0.591c-69.621,-15.285 -129.747,-46.804 -167.652,-89.068c-6.277,-7.005 -14.006,-28.051 0.831,-24.184c68.529,15.698 132.089,21.351 192.796,16.972c60.608,-4.132 115.239,-9.677 183.492,-27.702c62.985,-16.627 114.654,-37.343 173.718,-62.531c59.196,-25.252 116.981,-57.106 173.506,-89.373c56.771,-32.08 111.771,-67.107 164.95,-104.146c53.771,-36.606 105.77,-75.322 155.85,-115.711c99.351,-79.36 191.527,-165.044 273.508,-257.037c1.998,-2.245 5.327,-2.715 7.868,-1.111c0.001,0 0.002,0.001 0.002,0.001Z" 
style="fill:#414042;fill-rule:nonzero;"/>
</g>
</svg>